# xmcd CD database file
#
# Track frame offsets:
#	182
#	26942
#	54602
#	73802
#	101252
#	118497
#	145322
#	173690
#	192885
#	205190
#	222125
#	246892
#
# Disc length: 3663 seconds
#
# Revision: 8
# Processed by: cddbd v1.5.2PL0 Copyright (c) Steve Scherf et al.
# Submitted via: CDex 1.50
#
DISCID=b80e4d0c
DTITLE=Kenny Wayne Shepherd - Ledbetter Heights
DYEAR=1995
DGENRE=Blues Rock
TTITLE0=Born With A Broken Heart
TTITLE1=Deja Voodoo
TTITLE2=Aberdeen
TTITLE3=Shame, Shame, Shame
TTITLE4=One Foot On The Path
TTITLE5=Everybody Gets The Blues
TTITLE6=While We Cry (Live)
TTITLE7=I'm Leaving You (Commit A Crime)
TTITLE8=(Let Me Up) I've Had Enough
TTITLE9=Riverside
TTITLE10=What's Goin' Down
TTITLE11=Ledbetter Heights
EXTD=YEAR: 1995
EXTT0=
EXTT1=
EXTT2=
EXTT3=
EXTT4=
EXTT5=
EXTT6=
EXTT7=
EXTT8=
EXTT9=
EXTT10=
EXTT11=
PLAYORDER=
